<svg width="260" height="293" viewBox="0 0 260 293" fill="none" xmlns="http://www.w3.org/2000/svg">
<path fill-rule="evenodd" clip-rule="evenodd" d="M7.34609 68.3759C3.3702 60.7247 1.58549 52.1238 2.18893 43.5223C2.79237 34.9209 5.76048 26.6535 10.7657 19.6324C15.7709 12.6112 22.6187 7.10948 30.5532 3.73426C38.4877 0.359035 47.2004 -0.75841 55.7299 0.505244C64.2593 1.7689 72.2739 5.36452 78.8889 10.8953C85.504 16.426 90.4624 23.6769 93.2169 31.8476C95.9714 40.0184 96.415 48.7913 94.4986 57.1982C92.5823 65.6051 88.3805 73.3191 82.357 79.4888L114.513 141.32L169.224 142.432C173.239 132.054 180.82 123.447 190.608 118.154C200.396 112.861 211.749 111.228 222.632 113.55C233.514 115.871 243.213 121.994 249.989 130.821C256.765 139.647 260.174 150.599 259.605 161.712C259.036 172.824 254.525 183.371 246.883 191.458C239.241 199.546 228.967 204.646 217.904 205.843C206.841 207.04 195.714 204.257 186.518 197.991C177.323 191.726 170.66 182.388 167.727 171.655L113.221 170.555L82.8427 215.8C84.9235 218.314 86.7483 221.07 88.317 224.07C93.254 233.564 94.7879 244.463 92.6632 254.951C90.5385 265.439 84.8835 274.882 76.6408 281.707C68.398 288.531 58.0654 292.324 47.3651 292.454C36.6648 292.583 26.2433 289.042 17.8374 282.42C9.43151 275.798 3.54912 266.495 1.17063 256.061C-1.20786 245.628 0.0612393 234.694 4.76641 225.083C9.47158 215.472 17.3286 207.764 27.0279 203.243C36.7272 198.722 47.6828 197.663 58.0689 200.24L88.5593 154.831L56.3922 92.979C46.6678 94.5632 36.6916 93.0377 27.8849 88.62C19.0783 84.2023 11.8906 77.1177 7.34609 68.3759Z" fill="#EFEDF9"/>
<path fill-rule="evenodd" clip-rule="evenodd" d="M7.34609 68.3759C3.3702 60.7247 1.58549 52.1238 2.18893 43.5223C2.79237 34.9209 5.76048 26.6535 10.7657 19.6324C15.7709 12.6112 22.6187 7.10948 30.5532 3.73426C38.4877 0.359035 47.2004 -0.75841 55.7299 0.505244C64.2593 1.7689 72.2739 5.36452 78.8889 10.8953C85.504 16.426 90.4624 23.6769 93.2169 31.8476C95.9714 40.0184 96.415 48.7913 94.4986 57.1982C92.5823 65.6051 88.3805 73.3191 82.357 79.4888L114.513 141.32L169.224 142.432C173.239 132.054 180.82 123.447 190.608 118.154C200.396 112.861 211.749 111.228 222.632 113.55C233.514 115.871 243.213 121.994 249.989 130.821C256.765 139.647 260.174 150.599 259.605 161.712C259.036 172.824 254.525 183.371 246.883 191.458C239.241 199.546 228.967 204.646 217.904 205.843C206.841 207.04 195.714 204.257 186.518 197.991C177.323 191.726 170.66 182.388 167.727 171.655L113.221 170.555L82.8427 215.8C84.9235 218.314 86.7483 221.07 88.317 224.07C93.254 233.564 94.7879 244.463 92.6632 254.951C90.5385 265.439 84.8835 274.882 76.6408 281.707C68.398 288.531 58.0654 292.324 47.3651 292.454C36.6648 292.583 26.2433 289.042 17.8374 282.42C9.43151 275.798 3.54912 266.495 1.17063 256.061C-1.20786 245.628 0.0612393 234.694 4.76641 225.083C9.47158 215.472 17.3286 207.764 27.0279 203.243C36.7272 198.722 47.6828 197.663 58.0689 200.24L88.5593 154.831L56.3922 92.979C46.6678 94.5632 36.6916 93.0377 27.8849 88.62C19.0783 84.2023 11.8906 77.1177 7.34609 68.3759Z" fill="url(#paint0_radial_323_131)" fill-opacity="0.3"/>
<defs>
<radialGradient id="paint0_radial_323_131" cx="0" cy="0" r="1" gradientUnits="userSpaceOnUse" gradientTransform="translate(89.3519 124.65) rotate(62.5226) scale(134.545 140.385)">
<stop stop-opacity="0"/>
<stop offset="1" stop-opacity="0.1"/>
</radialGradient>
</defs>
</svg>
