<svg width="525" height="567" viewBox="0 0 525 567" fill="none" xmlns="http://www.w3.org/2000/svg">
<path fill-rule="evenodd" clip-rule="evenodd" d="M295.765 59.3653C301.624 43.6227 311.719 29.8051 324.935 19.4373C338.152 9.06948 353.976 2.55468 370.66 0.611871C387.345 -1.33094 404.243 1.37377 419.488 8.42751C434.733 15.4812 447.732 26.6097 457.052 40.5848C466.372 54.5599 471.65 70.8382 472.303 87.6232C472.955 104.408 468.958 121.047 460.752 135.704C452.546 150.361 440.45 162.466 425.799 170.682C411.148 178.899 394.512 182.908 377.726 182.267L330.408 309.525L400.294 390.027C420.534 382.267 442.878 381.973 463.315 389.199C483.753 396.424 500.947 410.695 511.814 429.452C522.68 448.209 526.507 470.224 522.609 491.548C518.71 512.872 507.341 532.109 490.541 545.808C473.74 559.506 452.609 566.771 430.937 566.297C409.265 565.823 388.471 557.643 372.285 543.224C356.099 528.804 345.581 509.089 342.618 487.615C339.654 466.141 344.439 444.314 356.115 426.05L286.479 345.859L181.411 361.09C180.498 367.381 178.9 373.619 176.616 379.806C169.349 399.345 155.606 415.804 137.676 426.439C119.745 437.074 98.7121 441.243 78.0811 438.251C57.4501 435.258 38.4677 425.286 24.2978 409.995C10.128 394.704 1.62658 375.019 0.210599 354.22C-1.20538 333.422 4.54958 312.766 16.5163 295.696C28.483 278.626 45.9386 266.172 65.9737 260.411C86.0088 254.651 107.413 255.93 126.619 264.037C145.825 272.144 161.673 286.588 171.52 304.963L276.972 289.68L324.306 162.38C309.31 150.399 298.478 133.992 293.353 115.494C288.228 96.9974 289.072 77.3547 295.765 59.3653Z" fill="#EFEDF9"/>
<path fill-rule="evenodd" clip-rule="evenodd" d="M295.765 59.3653C301.624 43.6227 311.719 29.8051 324.935 19.4373C338.152 9.06948 353.976 2.55468 370.66 0.611871C387.345 -1.33094 404.243 1.37377 419.488 8.42751C434.733 15.4812 447.732 26.6097 457.052 40.5848C466.372 54.5599 471.65 70.8382 472.303 87.6232C472.955 104.408 468.958 121.047 460.752 135.704C452.546 150.361 440.45 162.466 425.799 170.682C411.148 178.899 394.512 182.908 377.726 182.267L330.408 309.525L400.294 390.027C420.534 382.267 442.878 381.973 463.315 389.199C483.753 396.424 500.947 410.695 511.814 429.452C522.68 448.209 526.507 470.224 522.609 491.548C518.71 512.872 507.341 532.109 490.541 545.808C473.74 559.506 452.609 566.771 430.937 566.297C409.265 565.823 388.471 557.643 372.285 543.224C356.099 528.804 345.581 509.089 342.618 487.615C339.654 466.141 344.439 444.314 356.115 426.05L286.479 345.859L181.411 361.09C180.498 367.381 178.9 373.619 176.616 379.806C169.349 399.345 155.606 415.804 137.676 426.439C119.745 437.074 98.7121 441.243 78.0811 438.251C57.4501 435.258 38.4677 425.286 24.2978 409.995C10.128 394.704 1.62658 375.019 0.210599 354.22C-1.20538 333.422 4.54958 312.766 16.5163 295.696C28.483 278.626 45.9386 266.172 65.9737 260.411C86.0088 254.651 107.413 255.93 126.619 264.037C145.825 272.144 161.673 286.588 171.52 304.963L276.972 289.68L324.306 162.38C309.31 150.399 298.478 133.992 293.353 115.494C288.228 96.9974 289.072 77.3547 295.765 59.3653Z" fill="url(#paint0_radial_323_128)" fill-opacity="0.1"/>
<defs>
<radialGradient id="paint0_radial_323_128" cx="0" cy="0" r="1" gradientUnits="userSpaceOnUse" gradientTransform="translate(321.616 251.386) rotate(110.397) scale(262.109 273.486)">
<stop stop-opacity="0"/>
<stop offset="1" stop-opacity="0.1"/>
</radialGradient>
</defs>
</svg>
