<svg width="30" height="39" viewBox="0 0 30 39" fill="none" xmlns="http://www.w3.org/2000/svg">
<path d="M9.375 20.625L18.125 18.125L20.625 9.375L11.875 11.875L9.375 20.625ZM15 16.875C14.4792 16.875 14.0367 16.6929 13.6725 16.3287C13.3083 15.9646 13.1258 15.5217 13.125 15C13.1242 14.4783 13.3067 14.0358 13.6725 13.6725C14.0383 13.3092 14.4808 13.1267 15 13.125C15.5192 13.1233 15.9621 13.3058 16.3288 13.6725C16.6954 14.0392 16.8775 14.4817 16.875 15C16.8725 15.5183 16.6904 15.9612 16.3288 16.3287C15.9671 16.6962 15.5242 16.8783 15 16.875ZM15 27.5C13.2708 27.5 11.6458 27.1717 10.125 26.515C8.60417 25.8583 7.28125 24.9679 6.15625 23.8438C5.03125 22.7196 4.14084 21.3967 3.485 19.875C2.82917 18.3533 2.50083 16.7283 2.5 15C2.49917 13.2717 2.8275 11.6467 3.485 10.125C4.1425 8.60333 5.03292 7.28042 6.15625 6.15625C7.27958 5.03208 8.6025 4.14167 10.125 3.485C11.6475 2.82833 13.2725 2.5 15 2.5C16.7275 2.5 18.3525 2.82833 19.875 3.485C21.3975 4.14167 22.7204 5.03208 23.8438 6.15625C24.9671 7.28042 25.8579 8.60333 26.5163 10.125C27.1746 11.6467 27.5025 13.2717 27.5 15C27.4975 16.7283 27.1692 18.3533 26.515 19.875C25.8608 21.3967 24.9704 22.7196 23.8438 23.8438C22.7171 24.9679 21.3942 25.8587 19.875 26.5162C18.3558 27.1737 16.7308 27.5017 15 27.5Z" fill="#6956E3"/>
<rect x="2" y="35" width="27" height="4" rx="2" fill="#6956E3"/>
</svg>
