<svg width="30" height="39" viewBox="0 0 30 39" fill="none" xmlns="http://www.w3.org/2000/svg">
<path fill-rule="evenodd" clip-rule="evenodd" d="M3.26967 6.25571C2 7.51 2 9.53143 2 13.5714V16.4286C2 20.4686 2 22.49 3.26967 23.7443C4.53789 25 6.58178 25 10.6667 25H19.3333C23.4182 25 25.4621 25 26.7303 23.7443C28 22.49 28 20.4686 28 16.4286V13.5714C28 9.53143 28 7.51 26.7303 6.25571C25.4621 5 23.4182 5 19.3333 5H10.6667C6.58178 5 4.53789 5 3.26967 6.25571ZM7.135 9.52571C6.81627 9.31544 6.42613 9.23899 6.05041 9.3132C5.67469 9.38742 5.34417 9.6062 5.13156 9.92143C4.91894 10.2367 4.84165 10.6225 4.91668 10.9941C4.99172 11.3657 5.21294 11.6926 5.53167 11.9029L13.3981 17.0886C13.8725 17.4012 14.4299 17.568 15 17.568C15.5701 17.568 16.1275 17.4012 16.6019 17.0886L24.4683 11.9029C24.7871 11.6926 25.0083 11.3657 25.0833 10.9941C25.1583 10.6225 25.0811 10.2367 24.8684 9.92143C24.6558 9.6062 24.3253 9.38742 23.9496 9.3132C23.5739 9.23899 23.1837 9.31544 22.865 9.52571L15 14.7114L7.135 9.52571Z" fill="#6956E3"/>
<rect x="2" y="35" width="27" height="4" rx="2" fill="#6956E3"/>
</svg>
