<svg width="30" height="30" viewBox="0 0 30 30" fill="none" xmlns="http://www.w3.org/2000/svg">
<path d="M19.5 22C19.4 23.1 19.1 24.2 18.5 25.1C17.7 26.4 16.3 27.25 14.5 27.25C12.7 27.25 11.3 26.4 10.5 25.1C9.9 24.2 9.6 23.1 9.5 22M19.5 22H23.5C24.3 22 25 21.8 25.5 21.35C26 20.9 26.2 20.3 26.25 19.7C26.3 18.6 25.7 17.4 24.9 16.65C24 15.75 23.6 14.5 23.4 13C23.3 12.25 23.25 11.45 23.2 10.6V10.5C23.15 9.7 23.1 8.85 23 8.05C22.8 6.4 22.35 4.7 21 3.4C19.65 2.1 17.55 1.5 14.5 1.5C11.45 1.5 9.35 2.1 8 3.4C6.65 4.7 6.2 6.4 6 8.05C5.9 8.85 5.85 9.7 5.8 10.5V10.6C5.75 11.45 5.7 12.25 5.6 13C5.4 14.5 5 15.75 4.1 16.65C3.35 17.4 2.75 18.6 2.8 19.7C2.85 20.3 3.05 20.9 3.55 21.35C4.05 21.8 4.75 22 5.5 22H9.5M19.5 22H9.5" stroke="#000000" stroke-width="2" stroke-linecap="round" stroke-linejoin="round"/>
</svg>
