<svg width="22" height="25" viewBox="0 0 22 25" fill="none" xmlns="http://www.w3.org/2000/svg">
<path d="M15.6094 19.375C15.5219 20.3913 15.2719 21.4425 14.7394 22.325C13.9994 23.55 12.7544 24.375 10.9369 24.375C9.11937 24.375 7.87562 23.55 7.13687 22.325C6.60312 21.4425 6.35312 20.3913 6.26562 19.375H2.64563C1.90063 19.375 1.23437 19.19 0.738125 18.7538C0.234375 18.3088 0.030625 17.715 0.00312499 17.1537C-0.046875 16.0962 0.509375 14.9762 1.22313 14.2675C2.07313 13.4225 2.45438 12.265 2.64563 10.8312C2.74063 10.1175 2.78438 9.37 2.82813 8.58625L2.83312 8.50375C2.87562 7.75875 2.91937 6.97875 3.01312 6.22625C3.20812 4.675 3.63813 3.05625 4.89813 1.85125C6.16563 0.635 8.10062 0 10.9369 0C13.7731 0 15.7094 0.63625 16.9769 1.85C18.2369 3.05625 18.6669 4.675 18.8619 6.22625C18.9556 6.97875 18.9994 7.75875 19.0419 8.50375L19.0456 8.58625C19.0906 9.37 19.1331 10.1175 19.2294 10.8312C19.4206 12.265 19.8019 13.4225 20.6519 14.2687C21.3869 14.9987 21.9369 16.125 21.8706 17.1862C21.8356 17.7462 21.6206 18.3312 21.1169 18.765C20.6219 19.1925 19.9631 19.375 19.2294 19.375H15.6094Z" fill="#939393"/>
</svg>
