<svg width="65" height="69" viewBox="0 0 65 69" fill="none" xmlns="http://www.w3.org/2000/svg">
<path d="M65 34.4936C65 56.8402 50.7204 68.9872 32.5464 68.9872C14.1869 68.9872 0 56.7475 0 34.4936C0 12.1469 25.9629 0 44.3224 0C62.4964 0 65 12.1469 65 34.4936Z" fill="#6956E3"/>
<path d="M32.9375 22C34.1688 22 35.1681 22.9993 35.1681 24.2306V32.7069H43.6444C44.236 32.7069 44.8034 32.9419 45.2217 33.3602C45.64 33.7785 45.875 34.3459 45.875 34.9375C45.875 35.5291 45.64 36.0965 45.2217 36.5148C44.8034 36.9331 44.236 37.1681 43.6444 37.1681H35.1681V45.6444C35.1681 46.236 34.9331 46.8034 34.5148 47.2217C34.0965 47.64 33.5291 47.875 32.9375 47.875C32.3459 47.875 31.7785 47.64 31.3602 47.2217C30.9419 46.8034 30.7069 46.236 30.7069 45.6444V37.1681H22.2306C21.639 37.1681 21.0716 36.9331 20.6533 36.5148C20.235 36.0965 20 35.5291 20 34.9375C20 34.3459 20.235 33.7785 20.6533 33.3602C21.0716 32.9419 21.639 32.7069 22.2306 32.7069H30.7069V24.2306C30.7069 22.9993 31.7062 22 32.9375 22Z" fill="white"/>
</svg>
