<svg width="30" height="30" viewBox="0 0 30 30" fill="none" xmlns="http://www.w3.org/2000/svg">
<path d="M13.5 4C12.9477 4 12.5 4.44772 12.5 5V6.5C12.5 7.05228 12.0523 7.5 11.5 7.5C10.7 7.5 9.9 7.7 9.2 8L8.1 6.9C7.7 6.5 7.1 6.5 6.7 6.9L5.4 8.2C5 8.6 5 9.2 5.4 9.6L6.5 10.7C6.2 11.4 6 12.2 6 13C6 13.5523 5.55228 14 5 14H3.5C2.94772 14 2.5 14.4477 2.5 15V17C2.5 17.5523 2.94772 18 3.5 18H5C5.55228 18 6 18.4477 6 19C6 19.8 6.2 20.6 6.5 21.3L5.4 22.4C5 22.8 5 23.4 5.4 23.8L6.7 25.1C7.1 25.5 7.7 25.5 8.1 25.1L9.2 24C9.9 24.3 10.7 24.5 11.5 24.5C12.0523 24.5 12.5 24.9477 12.5 25.5V27C12.5 27.5523 12.9477 28 13.5 28H16.5C17.0523 28 17.5 27.5523 17.5 27V25.5C17.5 24.9477 17.9477 24.5 18.5 24.5C19.3 24.5 20.1 24.3 20.8 24L21.9 25.1C22.3 25.5 22.9 25.5 23.3 25.1L24.6 23.8C25 23.4 25 22.8 24.6 22.4L23.5 21.3C23.8 20.6 24 19.8 24 19C24 18.4477 24.4477 18 25 18H26.5C27.0523 18 27.5 17.5523 27.5 17V15C27.5 14.4477 27.0523 14 26.5 14H25C24.4477 14 24 13.5523 24 13C24 12.2 23.8 11.4 23.5 10.7L24.6 9.6C25 9.2 25 8.6 24.6 8.2L23.3 6.9C22.9 6.5 22.3 6.5 21.9 6.9L20.8 8C20.1 7.7 19.3 7.5 18.5 7.5C17.9477 7.5 17.5 7.05228 17.5 6.5V5C17.5 4.44772 17.0523 4 16.5 4H13.5Z" stroke="#000000" stroke-width="2" stroke-linecap="round" stroke-linejoin="round"/>
<circle cx="15" cy="16" r="4" stroke="#000000" stroke-width="2"/>
</svg>
