<svg width="30" height="30" viewBox="0 0 30 30" fill="none" xmlns="http://www.w3.org/2000/svg">
<path fill-rule="evenodd" clip-rule="evenodd" d="M13.5 3C12.9477 3 12.5 3.44772 12.5 4V5.5C12.5 6.05228 12.0523 6.5 11.5 6.5C10.7 6.5 9.9 6.7 9.2 7L8.1 5.9C7.7 5.5 7.1 5.5 6.7 5.9L5.4 7.2C5 7.6 5 8.2 5.4 8.6L6.5 9.7C6.2 10.4 6 11.2 6 12C6 12.5523 5.55228 13 5 13H3.5C2.94772 13 2.5 13.4477 2.5 14V16C2.5 16.5523 2.94772 17 3.5 17H5C5.55228 17 6 17.4477 6 18C6 18.8 6.2 19.6 6.5 20.3L5.4 21.4C5 21.8 5 22.4 5.4 22.8L6.7 24.1C7.1 24.5 7.7 24.5 8.1 24.1L9.2 23C9.9 23.3 10.7 23.5 11.5 23.5C12.0523 23.5 12.5 23.9477 12.5 24.5V26C12.5 26.5523 12.9477 27 13.5 27H16.5C17.0523 27 17.5 26.5523 17.5 26V24.5C17.5 23.9477 17.9477 23.5 18.5 23.5C19.3 23.5 20.1 23.3 20.8 23L21.9 24.1C22.3 24.5 22.9 24.5 23.3 24.1L24.6 22.8C25 22.4 25 21.8 24.6 21.4L23.5 20.3C23.8 19.6 24 18.8 24 18C24 17.4477 24.4477 17 25 17H26.5C27.0523 17 27.5 16.5523 27.5 16V14C27.5 13.4477 27.0523 13 26.5 13H25C24.4477 13 24 12.5523 24 12C24 11.2 23.8 10.4 23.5 9.7L24.6 8.6C25 8.2 25 7.6 24.6 7.2L23.3 5.9C22.9 5.5 22.3 5.5 21.9 5.9L20.8 7C20.1 6.7 19.3 6.5 18.5 6.5C17.9477 6.5 17.5 6.05228 17.5 5.5V4C17.5 3.44772 17.0523 3 16.5 3H13.5ZM15 19C17.2091 19 19 17.2091 19 15C19 12.7909 17.2091 11 15 11C12.7909 11 11 12.7909 11 15C11 17.2091 12.7909 19 15 19Z" fill="#939393"/>
</svg>
