<svg width="30" height="39" viewBox="0 0 30 39" fill="none" xmlns="http://www.w3.org/2000/svg">
<path fill-rule="evenodd" clip-rule="evenodd" d="M5 3.75C4.33696 3.75 3.70107 4.01339 3.23223 4.48223C2.76339 4.95107 2.5 5.58696 2.5 6.25V23.75C2.5 24.413 2.76339 25.0489 3.23223 25.5178C3.70107 25.9866 4.33696 26.25 5 26.25H25C25.663 26.25 26.2989 25.9866 26.7678 25.5178C27.2366 25.0489 27.5 24.413 27.5 23.75V6.25C27.5 5.58696 27.2366 4.95107 26.7678 4.48223C26.2989 4.01339 25.663 3.75 25 3.75H5ZM10.7812 10.7875C10.809 10.5485 10.8922 10.3193 11.0242 10.1182C11.1563 9.91711 11.3335 9.74965 11.5418 9.62919C11.75 9.50873 11.9835 9.43861 12.2237 9.42443C12.4639 9.41024 12.704 9.45239 12.925 9.5475C13.555 9.8175 14.885 10.425 16.57 11.3975C17.7542 12.0743 18.8978 12.8197 19.995 13.63C20.1879 13.7735 20.3446 13.9602 20.4525 14.1751C20.5605 14.3899 20.6167 14.627 20.6167 14.8675C20.6167 15.108 20.5605 15.3451 20.4525 15.5599C20.3446 15.7748 20.1879 15.9615 19.995 16.105C18.8977 16.9144 17.7541 17.659 16.57 18.335C15.3921 19.023 14.1751 19.6416 12.925 20.1875C12.704 20.2829 12.4638 20.3252 12.2236 20.3112C11.9833 20.2971 11.7497 20.227 11.5413 20.1065C11.333 19.986 11.1558 19.8185 11.0238 19.6172C10.8918 19.4159 10.8087 19.1866 10.7812 18.9475C10.6313 17.5927 10.5578 16.2306 10.5613 14.8675C10.5613 12.9288 10.7013 11.4688 10.7812 10.7875Z" fill="#6956E3"/>
<rect x="2" y="35" width="27" height="4" rx="2" fill="#6956E3"/>
</svg>
