<svg width="30" height="30" viewBox="0 0 30 30" fill="none" xmlns="http://www.w3.org/2000/svg">
<path d="M21.6161 4.86612C22.2661 4.21612 23.1339 3.85 24.0375 3.85C24.9411 3.85 25.8089 4.21612 26.4589 4.86612C27.1089 5.51612 27.475 6.38388 27.475 7.2875C27.475 8.19112 27.1089 9.05888 26.4589 9.70888L11.7589 22.7589C11.4062 23.1116 10.9633 23.3607 10.4786 23.4804L5.42857 24.7304C4.89286 24.8629 4.32857 24.7054 3.93214 24.3089C3.53571 23.9125 3.37857 23.3482 3.51107 22.8125L4.76107 17.7625C4.88071 17.2778 5.12982 16.8348 5.48249 16.4821L21.6161 4.86612Z" stroke="#000000" stroke-width="2" stroke-linecap="round" stroke-linejoin="round"/>
<path d="M6.875 25.625H25.625" stroke="#000000" stroke-width="2" stroke-linecap="round"/>
</svg>
