<svg width="30" height="30" viewBox="0 0 30 30" fill="none" xmlns="http://www.w3.org/2000/svg">
<path fill-rule="evenodd" clip-rule="evenodd" d="M21.6161 3.86612C22.5669 2.91532 24.1081 2.91532 25.0589 3.86612L26.1339 4.94112C27.0847 5.89192 27.0847 7.43308 26.1339 8.38388L11.7589 22.7589C11.4062 23.1116 10.9633 23.3607 10.4786 23.4804L5.42857 24.7304C4.89286 24.8629 4.32857 24.7054 3.93214 24.3089C3.53571 23.9125 3.37857 23.3482 3.51107 22.8125L4.76107 17.7625C4.88071 17.2778 5.12982 16.8348 5.48249 16.4821L21.6161 3.86612ZM6.875 25.625H25.625C26.3154 25.625 26.875 26.1846 26.875 26.875C26.875 27.5654 26.3154 28.125 25.625 28.125H6.875C6.18464 28.125 5.625 27.5654 5.625 26.875C5.625 26.1846 6.18464 25.625 6.875 25.625Z" fill="#939393"/>
</svg>
