<svg width="90" height="26" viewBox="0 0 90 26" fill="none" xmlns="http://www.w3.org/2000/svg">
<path d="M3.91566 7.3119C2.18862 7.3119 0.733228 6.02294 0.524521 4.30856C0.25727 2.11329 2.11457 0.246484 4.31118 0.50253L18.4375 2.14915C19.7431 2.30134 20.7277 3.40736 20.7277 4.72182C20.7277 6.15228 19.568 7.3119 18.1376 7.3119H17.2624C15.3487 7.3119 13.7972 8.86333 13.7972 10.7771V22.001C13.7972 23.9172 12.2829 25.4909 10.3681 25.5646C8.23406 25.6467 6.50685 23.8475 6.67599 21.7186L7.51866 11.1119C7.68138 9.06375 6.0632 7.3119 4.0086 7.3119H3.91566Z" fill="#6956E3"/>
<path d="M34.8428 2.41611C38.1458 1.01529 40.8831 4.94814 40.8831 8.5359V17.1989C40.8831 22.4126 36.9092 25.7188 30.9961 25.7188C25.083 25.7188 21.1409 22.4126 21.1409 17.1989V13.7019C21.1409 12.0339 22.4931 10.6817 24.1611 10.6817C25.829 10.6817 27.1812 12.0339 27.1812 13.7019V16.6584C27.1812 18.8838 28.7708 20.4733 30.9961 20.4733C31.7191 20.4733 32.3736 20.3102 32.9293 20.0154C35.3 18.7576 34.2537 15.3982 33.5188 12.817C32.4561 9.08435 31.616 3.78463 34.8428 2.41611Z" fill="#6956E3"/>
<path d="M59.4807 9.98234C59.0675 8.32921 57.7005 7.37548 55.6658 7.37548C52.455 7.37548 50.5793 9.79159 50.5793 13.8926C50.5793 18.0254 52.3278 20.4733 55.6341 20.4733C57.449 20.4733 58.701 19.9356 59.39 18.9999C60.0906 18.0484 59.0491 16.9763 57.8675 16.9763C56.7042 16.9763 55.7612 16.0333 55.7612 14.87V14.8146C55.7612 13.6206 56.7291 12.6528 57.923 12.6528H62.7234C64.4616 12.6528 65.8707 14.0619 65.8707 15.8001C65.8707 22.0629 61.5789 25.7506 55.5705 25.7506C48.8944 25.7506 44.3483 21.2363 44.3483 13.9562C44.3483 6.38997 49.3395 2.0982 55.5387 2.0982C58.3211 2.0982 60.7748 2.96611 62.5703 4.4373C65.4717 6.81472 60.3905 13.6214 59.4807 9.98234Z" fill="#6956E3"/>
<path d="M90 13.9244C90 21.586 85.1042 25.7506 78.8732 25.7506C72.5786 25.7506 67.7146 21.5542 67.7146 13.9244C67.7146 6.2628 76.616 2.0982 82.9106 2.0982C89.1416 2.0982 90 6.2628 90 13.9244ZM83.769 13.9244C83.769 9.69622 82.0205 7.37548 78.8732 7.37548C75.6941 7.37548 73.9456 9.69622 73.9456 13.9244C73.9456 18.1526 75.6941 20.4733 78.8732 20.4733C82.0205 20.4733 83.769 18.1526 83.769 13.9244Z" fill="#6956E3"/>
<path d="M28.4846 5.84954C28.4846 7.39461 27.2321 8.64714 25.687 8.64714C24.1419 8.64714 22.8894 7.39461 22.8894 5.84954C22.8894 4.30447 24.1419 3.05194 25.687 3.05194C27.2321 3.05194 28.4846 4.30447 28.4846 5.84954Z" fill="#6956E3"/>
</svg>
