<svg width="157" height="45" viewBox="0 0 157 45" fill="none" xmlns="http://www.w3.org/2000/svg">
<path d="M6.83065 12.7552C3.81792 12.7552 1.27908 10.5067 0.914997 7.51605C0.448793 3.68651 3.68875 0.429977 7.52062 0.876636L32.1631 3.74907C34.4407 4.01455 36.1582 5.94396 36.1582 8.23695C36.1582 10.7323 34.1354 12.7552 31.64 12.7552H30.1134C26.7749 12.7552 24.0685 15.4616 24.0685 18.8001V38.3795C24.0685 41.7223 21.4268 44.4675 18.0865 44.596C14.3639 44.7392 11.3508 41.6006 11.6459 37.8868L13.1159 19.3841C13.3997 15.8112 10.5769 12.7552 6.99278 12.7552H6.83065Z" fill="#1E3A5F"/>
<path d="M60.7813 4.21476C66.5432 1.77111 71.3183 8.63176 71.3183 14.8904V30.0025C71.3183 39.0975 64.3861 44.8651 54.071 44.8651C43.7559 44.8651 36.8792 39.0975 36.8792 30.0025V23.9022C36.8792 20.9925 39.238 18.6337 42.1477 18.6337C45.0573 18.6337 47.4161 20.9925 47.4161 23.9022V29.0597C47.4161 32.9417 50.189 35.7146 54.071 35.7146C56.5135 35.7146 58.5079 34.6476 59.6703 32.9106C61.1628 30.6803 60.224 27.799 59.3706 25.2546C57.2748 19.0063 54.2448 6.98696 60.7813 4.21476Z" fill="#1E3A5F"/>
<path d="M103.761 17.4136C103.04 14.5298 100.655 12.8661 97.106 12.8661C91.5048 12.8661 88.2328 17.0809 88.2328 24.2349C88.2328 31.4444 91.2829 35.7146 97.0505 35.7146C100.217 35.7146 102.401 34.7766 103.603 33.1443C104.825 31.4845 103.008 29.6143 100.947 29.6143C98.9174 29.6143 97.2723 27.9692 97.2723 25.9399V25.8432C97.2723 23.7604 98.9607 22.0721 101.043 22.0721H109.418C112.45 22.0721 114.908 24.5301 114.908 27.5623C114.908 38.4875 107.421 44.9205 96.9396 44.9205C85.2935 44.9205 77.3631 37.0456 77.3631 24.3458C77.3631 11.1469 86.0699 3.66019 96.8841 3.66019C101.738 3.66019 106.018 5.17421 109.15 7.74062C114.212 11.8879 105.348 23.7617 103.761 17.4136Z" fill="#1E3A5F"/>
<path d="M157 24.2904C157 37.6556 148.46 44.9205 137.59 44.9205C126.609 44.9205 118.124 37.6001 118.124 24.2904C118.124 10.9251 133.652 3.66019 144.633 3.66019C155.503 3.66019 157 10.9251 157 24.2904ZM146.13 24.2904C146.13 16.9145 143.08 12.8661 137.59 12.8661C132.044 12.8661 128.994 16.9145 128.994 24.2904C128.994 31.6662 132.044 35.7146 137.59 35.7146C143.08 35.7146 146.13 31.6662 146.13 24.2904Z" fill="#1E3A5F"/>
<path d="M49.6898 10.2042C49.6898 12.8995 47.5049 15.0845 44.8096 15.0845C42.1143 15.0845 39.9293 12.8995 39.9293 10.2042C39.9293 7.50894 42.1143 5.32397 44.8096 5.32397C47.5049 5.32397 49.6898 7.50894 49.6898 10.2042Z" fill="#1E3A5F"/>
</svg>
