<svg width="23" height="18" viewBox="0 0 23 18" fill="none" xmlns="http://www.w3.org/2000/svg">
<path fill-rule="evenodd" clip-rule="evenodd" d="M1.09875 1.09875C-7.45058e-08 2.19625 0 3.965 0 7.5V10C0 13.535 -7.45058e-08 15.3038 1.09875 16.4013C2.19625 17.5 3.965 17.5 7.5 17.5H15C18.535 17.5 20.3038 17.5 21.4013 16.4013C22.5 15.3038 22.5 13.535 22.5 10V7.5C22.5 3.965 22.5 2.19625 21.4013 1.09875C20.3038 2.23517e-07 18.535 0 15 0H7.5C3.965 0 2.19625 2.23517e-07 1.09875 1.09875ZM4.44375 3.96C4.16792 3.77601 3.83031 3.70912 3.50516 3.77405C3.18002 3.83899 2.89399 4.03042 2.71 4.30625C2.52601 4.58207 2.45912 4.91969 2.52405 5.24484C2.58899 5.56998 2.78043 5.85601 3.05625 6.04L9.86375 10.5775C10.2743 10.8511 10.7566 10.997 11.25 10.997C11.7434 10.997 12.2257 10.8511 12.6363 10.5775L19.4438 6.04C19.7196 5.85601 19.911 5.56998 19.9759 5.24484C20.0409 4.91969 19.974 4.58207 19.79 4.30625C19.606 4.03042 19.32 3.83899 18.9948 3.77405C18.6697 3.70912 18.3321 3.77601 18.0562 3.96L11.25 8.4975L4.44375 3.96Z" fill="#939393"/>
</svg>
