<svg width="27" height="24" viewBox="0 0 27 24" fill="none" xmlns="http://www.w3.org/2000/svg">
<g clip-path="url(#clip0_63_3562)">
<path d="M15.0844 2.53589L13.9781 0.295263C13.7953 -0.0937998 13.2234 -0.107862 13.0219 0.295263L11.9156 2.53589L9.46406 2.88745C9.02812 2.95307 8.84062 3.49214 9.16406 3.81558L10.9453 5.54995L10.5234 7.99214C10.4578 8.42807 10.9078 8.76557 11.3109 8.56401L13.5094 7.40151L15.6937 8.54526C16.0969 8.74683 16.5516 8.40933 16.4813 7.97339L16.0594 5.5312L17.8406 3.81558C18.1594 3.49683 17.9766 2.95776 17.5406 2.88745L15.0891 2.53589H15.0844ZM12 12C10.7578 12 9.75 13.0078 9.75 14.25V21.75C9.75 22.9921 10.7578 24 12 24H15C16.2422 24 17.25 22.9921 17.25 21.75V14.25C17.25 13.0078 16.2422 12 15 12H12ZM2.25 15C1.00781 15 0 16.0078 0 17.25V21.75C0 22.9921 1.00781 24 2.25 24H5.25C6.49219 24 7.5 22.9921 7.5 21.75V17.25C7.5 16.0078 6.49219 15 5.25 15H2.25ZM19.5 20.25V21.75C19.5 22.9921 20.5078 24 21.75 24H24.75C25.9922 24 27 22.9921 27 21.75V20.25C27 19.0078 25.9922 18 24.75 18H21.75C20.5078 18 19.5 19.0078 19.5 20.25Z" fill="#939393"/>
</g>
<defs>
<clipPath id="clip0_63_3562">
<rect width="27" height="24" fill="white"/>
</clipPath>
</defs>
</svg>
